<svg xmlns="http://www.w3.org/2000/svg" viewBox="0 0 500 500"><g id="freepik--Floor--inject-182"><ellipse id="freepik--floor--inject-182" cx="250" cy="351.39" rx="231.19" ry="137.53" style="fill:#f5f5f5"></ellipse></g><g id="freepik--Shadows--inject-182"><path id="freepik--Shadow--inject-182" d="M359.28,305.8c-18.06,10.43-18.06,27.34,0,37.77s47.35,10.43,65.41,0,18.07-27.34,0-37.77S377.35,295.37,359.28,305.8Z" style="fill:#e6e6e6"></path><path id="freepik--shadow--inject-182" d="M82.82,389.21,35.14,361.63a1.11,1.11,0,0,1,0-2.1l106-61.37a4,4,0,0,1,3.63,0l47.68,27.58a1.11,1.11,0,0,1,0,2.1l-106,61.37A4,4,0,0,1,82.82,389.21Z" style="fill:#e0e0e0"></path><ellipse id="freepik--shadow--inject-182" cx="258.23" cy="414.45" rx="83.16" ry="48.02" style="fill:#e6e6e6"></ellipse></g><g id="freepik--Window--inject-182"><g id="freepik--window--inject-182"><g id="freepik--window--inject-182"><g id="freepik--Frame--inject-182"><polygon points="460.41 213.53 457.92 214.38 380.75 169.83 383.24 168.97 460.41 213.53" style="fill:#fafafa"></polygon><polygon points="383.24 168.97 457.92 212.08 457.92 72.46 383.24 29.36 383.24 168.97" style="fill:#fff"></polygon><path d="M376.05,171.37l86.57,50V70.92l-86.57-50Zm4.7-143.46,77.17,44.55V214.38l-77.17-44.55Z" style="fill:#f0f0f0"></path><polygon points="380.75 169.83 383.24 168.97 383.24 29.36 380.75 27.91 380.75 169.83" style="fill:#e0e0e0"></polygon><polygon points="457.92 178.39 457.92 180.68 380.75 136.12 383.24 135.27 457.92 178.39" style="fill:#fafafa"></polygon><polygon points="457.92 99.62 457.92 101.92 380.75 57.36 383.24 56.51 457.92 99.62" style="fill:#fafafa"></polygon><polygon points="376.05 20.93 378.58 20.11 465.15 70.09 462.62 70.92 376.05 20.93" style="fill:#fafafa"></polygon><polygon points="465.15 70.09 462.62 70.92 462.62 221.35 465.15 220.53 465.15 70.09" style="fill:#e0e0e0"></polygon><polygon points="425.45 53.72 422.93 52.26 422.93 194.19 425.45 193.36 425.45 53.72" style="fill:#e0e0e0"></polygon></g><polygon points="418.23 49.55 422.93 52.26 422.93 194.19 418.23 191.47 418.23 49.55" style="fill:#f0f0f0"></polygon><polygon points="376.05 54.65 376.05 58.9 462.62 108.88 462.62 104.63 376.05 54.65" style="fill:#f0f0f0"></polygon><polygon points="376.05 133.4 376.05 137.66 462.62 187.64 462.62 183.38 376.05 133.4" style="fill:#f0f0f0"></polygon><polygon points="422.93 81.72 425.45 80.88 457.92 99.62 457.92 101.92 422.93 81.72" style="fill:#fafafa"></polygon><polygon points="422.93 160.45 425.45 159.62 457.92 178.36 457.92 180.66 422.93 160.45" style="fill:#fafafa"></polygon></g></g></g><g id="freepik--Pictures--inject-182"><g id="freepik--Picture--inject-182"><g id="freepik--frame--inject-182"><polygon points="91.6 161.17 93.39 162.24 130.09 141.05 128.3 139.99 91.6 161.17" style="fill:#fafafa"></polygon><polygon points="128.3 139.99 93.39 160.13 93.54 48.18 128.45 28.05 128.3 139.99" style="fill:#fff"></polygon><path d="M133.61,21.15,90.17,46.24,90,168.08,133.46,143Zm-3.52,119.9-36.7,21.19.15-114.06L130.24,27Z" style="fill:#f0f0f0"></path><polygon points="130.09 141.05 128.3 139.99 128.45 28.05 130.24 27 130.09 141.05" style="fill:#e0e0e0"></polygon><polygon points="133.62 21.15 131.8 20.11 88.35 45.2 90.17 46.23 133.62 21.15" style="fill:#fafafa"></polygon><polygon points="88.35 45.2 90.17 46.23 90.02 168.08 88.2 167.04 88.35 45.2" style="fill:#e0e0e0"></polygon></g><g id="freepik--Land--inject-182"><polygon points="125.68 137.9 96.01 155.03 96.16 51.34 125.83 34.21 125.68 137.9" style="fill:#f0f0f0"></polygon></g><g id="freepik--land--inject-182"><polygon points="125.68 137.9 96.01 155.03 96.16 51.34 125.83 34.21 125.68 137.9" style="fill:#f0f0f0"></polygon></g><path d="M96,126.25a28.58,28.58,0,0,0,4.24,0,53.44,53.44,0,0,0,14.45-3.15c3.59-1.32,7.18-3,11-3.15v18l-4,2.32a13.42,13.42,0,0,0-5.5-3.06c-5.72-1.51-11.59,1.37-17.46,2a24.11,24.11,0,0,1-2.69.13Z" style="fill:#fafafa"></path><path d="M96.16,93.71c6.64-2,13.45-3.6,18.19-8.47,3.82-3.93,5.62-9.37,6.87-14.7s2.12-10.83,4.54-15.75c0,0,0-.09.07-.14V94.34c-.37.55-.74,1.1-1.14,1.64-4.36,5.91-10.78,10.84-18.11,11.22-3.44.18-7-.62-10.42-.61Z" style="fill:#fafafa"></path><path d="M96.16,67.62a20.22,20.22,0,0,0,6.58-18.4c-.1-.5-.21-1-.34-1.48l11.42-6.59c0,.75-.09,1.5-.11,2.25-.12,4.36,0,8.77-.93,13a25.58,25.58,0,0,1-13,16.81,23.69,23.69,0,0,1-3.61,1.5Z" style="fill:#fafafa"></path></g><g id="freepik--picture--inject-182"><g id="freepik--frame--inject-182"><polygon points="38.1 192.04 39.89 193.11 76.59 171.92 74.8 170.85 38.1 192.04" style="fill:#fafafa"></polygon><polygon points="74.8 170.85 39.89 191 40.04 79.05 74.95 58.92 74.8 170.85" style="fill:#fff"></polygon><path d="M80.11,52,36.67,77.11,36.52,199,80,173.87Zm-3.52,119.9-36.7,21.19L40,79.05l36.7-21.18Z" style="fill:#f0f0f0"></path><polygon points="76.59 171.92 74.8 170.85 74.95 58.92 76.74 57.87 76.59 171.92" style="fill:#e0e0e0"></polygon><polygon points="80.11 52.02 78.3 50.98 34.85 76.07 36.67 77.11 80.11 52.02" style="fill:#fafafa"></polygon><polygon points="34.85 76.07 36.67 77.11 36.52 198.95 34.7 197.91 34.85 76.07" style="fill:#e0e0e0"></polygon></g><g id="freepik--land--inject-182"><polygon points="72.18 168.76 42.51 185.9 42.66 82.21 72.33 65.08 72.18 168.76" style="fill:#f0f0f0"></polygon></g><g id="freepik--land--inject-182"><polygon points="72.18 168.76 42.51 185.9 42.66 82.21 72.33 65.08 72.18 168.76" style="fill:#f0f0f0"></polygon></g><path d="M42.51,157.12a28.58,28.58,0,0,0,4.24,0,53.06,53.06,0,0,0,14.45-3.15c3.59-1.32,7.18-3,11-3.15v18l-4,2.32a13.49,13.49,0,0,0-5.5-3.06c-5.72-1.51-11.59,1.37-17.46,2a24.11,24.11,0,0,1-2.69.13Z" style="fill:#fafafa"></path><path d="M42.66,124.58c6.64-2,13.45-3.6,18.19-8.47,3.82-3.93,5.62-9.37,6.87-14.7s2.12-10.83,4.53-15.75a1,1,0,0,0,.08-.14v39.69c-.37.55-.74,1.11-1.14,1.64-4.36,5.91-10.78,10.84-18.11,11.22-3.45.18-7-.62-10.42-.61Z" style="fill:#fafafa"></path><path d="M42.66,98.49a20.22,20.22,0,0,0,6.58-18.4c-.1-.5-.21-1-.34-1.48L60.31,72c0,.75-.08,1.5-.1,2.25-.12,4.36,0,8.77-.93,13a25.58,25.58,0,0,1-13,16.81,23.69,23.69,0,0,1-3.61,1.5Z" style="fill:#fafafa"></path></g></g><g id="freepik--Table--inject-182"><g id="freepik--table--inject-182"><g id="freepik--table--inject-182"><path d="M365.12,269.61a1.13,1.13,0,0,1,.66-.92,3.54,3.54,0,0,1,3.2,0,1.11,1.11,0,0,1,.67.92L359,329.21h0a.8.8,0,0,1-.46.64,2.52,2.52,0,0,1-2.27,0,.8.8,0,0,1-.46-.64h0Z" style="fill:#455a64"></path><path d="M418.32,269.61a1.13,1.13,0,0,0-.66-.92,3.56,3.56,0,0,0-3.21,0,1.12,1.12,0,0,0-.66.92l10.61,59.6h0a.81.81,0,0,0,.47.64,2.5,2.5,0,0,0,2.26,0,.81.81,0,0,0,.47-.64h0Z" style="fill:#455a64"></path><path d="M394.26,271.94a1.12,1.12,0,0,0-.66-.92,3.56,3.56,0,0,0-3.21,0,1.12,1.12,0,0,0-.66.92l.66,68.62h0a.8.8,0,0,0,.46.64,2.52,2.52,0,0,0,2.27,0,.8.8,0,0,0,.46-.64h0Z" style="fill:#455a64"></path><path d="M432.56,252.67h0c0-6-3.93-12-11.85-16.57-15.84-9.14-41.53-9.14-57.37,0-7.92,4.58-11.85,10.57-11.85,16.57h0v3.21h0c.09,5.92,4.06,11.82,11.88,16.33,15.84,9.15,41.53,9.15,57.37,0,7.82-4.51,11.79-10.41,11.88-16.33h0Z" style="fill:#AEAEAE"></path><path d="M432.56,252.67h0c0-6-3.93-12-11.85-16.57-15.84-9.14-41.53-9.14-57.37,0-7.92,4.58-11.85,10.57-11.85,16.57h0v3.21h0c.09,5.92,4.06,11.82,11.88,16.33,15.84,9.15,41.53,9.15,57.37,0,7.82-4.51,11.79-10.41,11.88-16.33h0Z" style="fill:#fff;opacity:0.6000000000000001"></path><path d="M363.31,236.1c-15.84,9.15-15.84,24,0,33.13s41.53,9.14,57.37,0,15.84-24,0-33.13S379.15,227,363.31,236.1Z" style="fill:#AEAEAE"></path><g style="opacity:0.8"><path d="M363.31,236.1c-15.84,9.15-15.84,24,0,33.13s41.53,9.14,57.37,0,15.84-24,0-33.13S379.15,227,363.31,236.1Z" style="fill:#fff"></path></g></g><g id="freepik--Pot--inject-182"><g style="opacity:0.2"><path d="M400.88,244.93c5.05,2.91,5.05,7.64,0,10.56s-13.25,2.92-18.3,0-5.05-7.65,0-10.56S395.83,242,400.88,244.93Z" style="fill:#AEAEAE"></path></g><path d="M383.68,250.86c-4.4-4.49-7-15.7-2.69-19.27h21.84c4.29,3.57,1.71,14.77-2.69,19.27L400,251l-.15.15c-.13.12-.26.24-.4.35l-.1.08-.34.26a5.5,5.5,0,0,1-.57.36,14.49,14.49,0,0,1-13.11,0h0a6.12,6.12,0,0,1-.57-.37,3.55,3.55,0,0,1-.31-.23l-.13-.1-.38-.34-.18-.18A.94.94,0,0,1,383.68,250.86Z" style="fill:#f0f0f0"></path><path d="M400.93,230.16c5,2.88,5,7.54,0,10.42s-13.06,2.88-18,0-5-7.54,0-10.42S396,227.28,400.93,230.16Z" style="fill:#fafafa"></path><path d="M397.4,232.2c3,1.75,3,4.59,0,6.34a12.14,12.14,0,0,1-11,0c-3-1.75-3-4.59,0-6.34A12.14,12.14,0,0,1,397.4,232.2Z" style="fill:#e0e0e0"></path><path d="M386.42,235.21a12.14,12.14,0,0,1,11,0,5.12,5.12,0,0,1,1.82,1.66,5.14,5.14,0,0,1-1.82,1.67,12.14,12.14,0,0,1-11,0,5.14,5.14,0,0,1-1.82-1.67A5.12,5.12,0,0,1,386.42,235.21Z" style="fill:#455a64"></path><path d="M396.73,236.87a24.56,24.56,0,0,0,4-5.28c1.84-3.24,3.4-7.36,2.46-7.9s-6,3.58-6,3.58a23.54,23.54,0,0,0,.41-5.54c-.17-2.89-.87-5.51-1.7-6s-2.68,3.11-3.47,5.75-1.11,4.29-1.11,4.29-.7-3-1.58-5.55c-1-2.74-1.84-3.36-2.51-3.09s-1.13,1.55-1.32,5.2a36.27,36.27,0,0,0,.16,5.23s-1.36-1.5-2.87-3-2.83-1.59-3.31-1.29-.14,2.56,2.43,7.21a26,26,0,0,0,4.85,6.38S390.65,239.17,396.73,236.87Z" style="fill:#AEAEAE"></path><g style="opacity:0.2"><path d="M396.73,236.87a24.56,24.56,0,0,0,4-5.28c1.84-3.24,3.4-7.36,2.46-7.9s-6,3.58-6,3.58a23.54,23.54,0,0,0,.41-5.54c-.17-2.89-.87-5.51-1.7-6s-2.68,3.11-3.47,5.75-1.11,4.29-1.11,4.29-.7-3-1.58-5.55c-1-2.74-1.84-3.36-2.51-3.09s-1.13,1.55-1.32,5.2a36.27,36.27,0,0,0,.16,5.23s-1.36-1.5-2.87-3-2.83-1.59-3.31-1.29-.14,2.56,2.43,7.21a26,26,0,0,0,4.85,6.38S390.65,239.17,396.73,236.87Z"></path></g><path d="M392.36,221.44c-.79,2.65-1.11,4.29-1.11,4.29h0l.48,2.27s.5-5,1.2-8.17C392.71,220.38,392.52,220.93,392.36,221.44Z" style="opacity:0.2"></path><path d="M386.87,225.43a32.71,32.71,0,0,1-.7-6.33,23.64,23.64,0,0,0-.33,3.19,36.27,36.27,0,0,0,.16,5.23l3.5,3.67A31.62,31.62,0,0,1,386.87,225.43Z" style="opacity:0.2"></path><path d="M394.91,229.43l2.21-2.16h0a23.54,23.54,0,0,0,.41-5.54,20.49,20.49,0,0,0-.45-3.27,15.53,15.53,0,0,1-.26,5.31A49.65,49.65,0,0,1,394.91,229.43Z" style="opacity:0.2"></path></g></g></g><g id="freepik--Furniture--inject-182"><g id="freepik--Drawer--inject-182"><g id="freepik--drawer--inject-182"><polygon points="95.02 356.46 90.28 379.99 85.67 382.65 81.1 380.01 76.31 356.46 85.67 351.06 95.02 356.46" style="fill:#AEAEAE"></polygon><polygon points="95.02 356.46 90.28 379.99 85.67 382.65 81.1 380.01 76.31 356.46 85.67 351.06 95.02 356.46" style="fill:#fff;opacity:0.55"></polygon><polygon points="85.67 382.65 85.67 361.86 95.02 356.46 90.28 379.99 85.67 382.65" style="fill:#AEAEAE"></polygon><polygon points="85.67 382.65 85.67 361.86 95.02 356.46 90.28 379.99 85.67 382.65" style="fill:#fff;opacity:0.7000000000000001"></polygon><polygon points="58.46 335.36 53.72 358.88 49.11 361.55 44.54 358.91 39.76 335.36 49.11 329.96 58.46 335.36" style="fill:#AEAEAE"></polygon><polygon points="58.46 335.36 53.72 358.88 49.11 361.55 44.54 358.91 39.76 335.36 49.11 329.96 58.46 335.36" style="fill:#fff;opacity:0.55"></polygon><polygon points="49.11 361.55 49.11 340.76 58.46 335.36 53.72 358.88 49.11 361.55" style="fill:#AEAEAE"></polygon><polygon points="49.11 361.55 49.11 340.76 58.46 335.36 53.72 358.88 49.11 361.55" style="fill:#fff;opacity:0.7000000000000001"></polygon><polygon points="181 306.93 176.25 330.45 171.65 333.12 167.08 330.48 162.29 306.93 171.65 301.53 181 306.93" style="fill:#AEAEAE"></polygon><polygon points="181 306.93 176.25 330.45 171.65 333.12 167.08 330.48 162.29 306.93 171.65 301.53 181 306.93" style="fill:#fff;opacity:0.55"></polygon><polygon points="171.65 333.12 171.65 312.33 181 306.93 176.25 330.45 171.65 333.12" style="fill:#AEAEAE"></polygon><polygon points="171.65 333.12 171.65 312.33 181 306.93 176.25 330.45 171.65 333.12" style="fill:#fff;opacity:0.7000000000000001"></polygon><g style="opacity:0.2"><polygon points="162.29 306.93 171.65 301.53 181 306.93 179.15 316.09 171.65 320.42 164.15 316.09 162.29 306.93" style="fill:#AEAEAE"></polygon><polygon points="58.46 335.36 56.62 344.53 49.11 348.85 41.62 344.53 39.76 335.36 49.11 329.96 58.46 335.36" style="fill:#AEAEAE"></polygon><polygon points="78.18 365.63 76.31 356.46 85.67 351.06 95.02 356.46 93.17 365.62 85.66 369.96 78.18 365.63" style="fill:#AEAEAE"></polygon></g><polygon points="85.67 363.98 34.7 334.55 34.7 253.34 85.67 282.76 85.67 363.98" style="fill:#AEAEAE"></polygon><polygon points="85.67 363.98 34.7 334.55 34.7 253.34 85.67 282.76 85.67 363.98" style="fill:#fff;opacity:0.7000000000000001"></polygon><polygon points="85.67 282.76 183.65 226.29 183.65 307.51 85.67 363.98 85.67 282.76" style="fill:#AEAEAE"></polygon><polygon points="85.67 282.76 183.65 226.29 183.65 307.51 85.67 363.98 85.67 282.76" style="fill:#fff;opacity:0.8"></polygon><polygon points="183.65 226.29 85.67 282.76 34.7 253.34 132.68 196.87 183.65 226.29" style="fill:#AEAEAE"></polygon><polygon points="183.65 226.29 85.67 282.76 34.7 253.34 132.68 196.87 183.65 226.29" style="fill:#fff;opacity:0.9"></polygon><g style="opacity:0.4"><polygon points="92.94 288.52 146.89 257.36 146.88 318.97 148.22 319.74 94.28 350.9 92.94 350.12 92.94 288.52" style="fill:#AEAEAE"></polygon></g><polygon points="94.28 289.3 148.23 258.14 148.22 319.74 94.28 350.9 94.28 289.3" style="fill:#AEAEAE"></polygon><g style="opacity:0.85"><polygon points="94.28 289.3 148.23 258.14 148.22 319.74 94.28 350.9 94.28 289.3" style="fill:#fff"></polygon></g><path d="M139,276.09v11.44c0,1.49.81,2.22,1.82,1.64a4.68,4.68,0,0,0,1.82-3.74V274c0-1.48-.82-2.22-1.82-1.64A4.66,4.66,0,0,0,139,276.09Z" style="fill:#AEAEAE"></path><g style="opacity:0.4"><polygon points="154.28 253.1 172.56 242.64 172.56 304.24 173.9 305.02 155.62 315.48 154.28 314.7 154.28 253.1" style="fill:#AEAEAE"></polygon></g><polygon points="155.62 253.87 173.9 243.41 173.9 305.02 155.62 315.48 155.62 253.87" style="fill:#AEAEAE"></polygon><g style="opacity:0.85"><polygon points="155.62 253.87 173.9 243.41 173.9 305.02 155.62 315.48 155.62 253.87" style="fill:#fff"></polygon></g><path d="M161.55,263.12v11.43c0,1.49.82,2.22,1.82,1.64a4.64,4.64,0,0,0,1.82-3.74V261c0-1.48-.81-2.21-1.82-1.63A4.67,4.67,0,0,0,161.55,263.12Z" style="fill:#AEAEAE"></path></g><g id="freepik--Books--inject-182"><path id="freepik--shadow--inject-182" d="M89,276.05,51.77,254.72a.42.42,0,0,1,0-.8l26.48-15.27a1.5,1.5,0,0,1,1.37,0L116.84,260a.42.42,0,0,1,0,.79L90.36,276.05A1.57,1.57,0,0,1,89,276.05Z" style="fill:#AEAEAE;opacity:0.4"></path><g id="freepik--Book--inject-182"><polygon points="112.9 259.2 90.12 272.19 56.93 253.14 79.71 240.15 112.9 259.2"></polygon><path d="M89.86,271.2l22-12.61a9.07,9.07,0,0,1,.12-5.7L90.12,265.37S89.7,266.75,89.86,271.2Z" style="fill:#f5f5f5"></path><path d="M91.24,263.59a4.63,4.63,0,0,0-2.11,3.63v4.25c0,1.34.94,1.88,2.11,1.21l21.66-12.43V259.2L91.53,271.39c-.7.4-1.27.07-1.27-.73l0-3.94a2.78,2.78,0,0,1,1.27-2.18l21.35-12.19v-1.19Z" style="fill:#263238"></path><path d="M112.9,251.16l-33.19-19L58.05,244.54a4.64,4.64,0,0,0-2.11,3.63v4.25a1.46,1.46,0,0,0,.62,1.36l33.19,19a1.46,1.46,0,0,1-.62-1.36v-4.25a4.64,4.64,0,0,1,2.12-3.63Z" style="fill:#455a64"></path><path d="M89.74,265.15a4.31,4.31,0,0,0-.62,2.07v4.25a1.46,1.46,0,0,0,.62,1.36l-33.19-19a1.46,1.46,0,0,1-.62-1.36v-4.25a4.31,4.31,0,0,1,.62-2.07Z" style="fill:#37474f"></path></g></g><g id="freepik--Image--inject-182"><polygon id="freepik--shadow--inject-182" points="121.28 246.95 97.31 233.11 137.26 210.04 161.24 223.88 121.28 246.95" style="fill:#AEAEAE;opacity:0.2"></polygon><g id="freepik--picture--inject-182"><g id="freepik--frame--inject-182"><polygon points="122.05 238.4 123.69 239.19 154.19 221.59 152.54 220.79 122.05 238.4" style="fill:#e0e0e0"></polygon><polygon points="152.54 220.79 123.53 237.54 119.31 194.15 148.32 177.41 152.54 220.79" style="fill:#fff"></polygon><path d="M152.31,171.86l-36.1,20.84,5,51.18L157.29,223Zm1.88,49.73-30.5,17.6-4.38-45,30.5-17.61Z" style="fill:#fafafa"></path><path d="M119.42,194.2c5.35-3.11,10.71-6.21,16-9.37-5.42,3-10.8,6.14-16.19,9.23l-.05,0v.07c.5,5.41,1,10.82,1.59,16.22s1.08,10.81,1.67,16.22c-.46-5.42-1-10.83-1.48-16.24S120,199.59,119.42,194.2Z" style="opacity:0.1"></path><polygon points="154.19 221.59 152.54 220.79 148.32 177.41 149.81 176.54 154.19 221.59" style="fill:#e0e0e0"></polygon><polygon points="154.19 221.59 152.54 220.79 148.32 177.41 149.81 176.54 154.19 221.59" style="opacity:0.1"></polygon><polygon points="152.31 171.86 150.65 171.09 114.54 191.93 116.21 192.7 152.31 171.86" style="fill:#f0f0f0"></polygon><polygon points="114.54 191.93 116.21 192.7 121.19 243.88 119.52 243.11 114.54 191.93" style="fill:#e0e0e0"></polygon></g><path d="M150.56,212.66l-10.11-15.32-7.9,22.79,1-6.18-4.75-7.32-5,21.47.71,7.31L151.27,220ZM128.8,201.91a3.75,3.75,0,0,0,1.76-3.3c-.11-1.2-1.09-1.66-2.19-1a3.78,3.78,0,0,0-1.76,3.31C126.72,202.08,127.7,202.54,128.8,201.91Z" style="fill:#AEAEAE;opacity:0.30000000000000004"></path></g></g></g></g><g id="freepik--Character--inject-182"><g id="freepik--character--inject-182"><g id="freepik--Bottom--inject-182"><path d="M209.83,391.33c.86-12.49,1.3-18.33,2.49-40.65h0c.1-5.72.31-11.85.69-17.29,1.29-18.32,3.65-22.68,5.23-29s2.84-18,5.25-57.42a203.08,203.08,0,0,1,7.26-44.5h56.41c5.8,24.7,7.45,78.16,7.28,103.61-.09,13-.23,80,.09,85.37A18.07,18.07,0,0,0,300,403.11c4.65,5,8,7,13.81,11.36-.84,2.23-13,2.15-16.52.45a129,129,0,0,1-14.58-8.56c-4.78-3.54-5.9-5.68-6-11.08a12.87,12.87,0,0,1,.05-1.76c-.09-3.15-9.17-50.12-11.15-60.73-1.54-8.23.14-24.19.14-24.19l-6-39.24s-6.75,26-10.35,41.91c-2.65,11.66-9.2,30.07-13.48,48.72h0c-5,18.95-5.41,20.62-8.37,34.2-1.49,6.84-5.13,29.85-6.79,34.58-5.35,15.28-17.48,7.69-18.16-.75C202.15,422.4,209.64,394,209.83,391.33Z" style="fill:#c8856a"></path><path d="M259.76,269.36l4.37-28.31s16.89-2,23-7.91c0,0-7.74,10.93-19.21,12.72l-4.81,23.46,2.54,38.94Z" style="fill:#9a4a4d"></path><path d="M326.69,420.79c.32,0,.83,3.48-.87,5-2,1.73-7.76,4.6-15.46,3.69s-11.89-3.25-15-5.79-7.46-6.13-10.94-6.86c-3.24-.68-8.52-2.45-9.57-3.43s-1-5.44-1-5.44Z" style="fill:#263238"></path><path d="M276.63,392.34a2.35,2.35,0,0,0-1.22,1.52c-.23,1.23-.22,2.8-.71,4.81-.67,2.8-1.08,8.53-.64,10.8s7.49,4.14,10.87,5.38a42.92,42.92,0,0,1,11,6.77c3.65,2.95,11.29,5.85,16.3,5.87,7.66,0,12.59-2.09,14.09-4.86,1.86-3.43.35-5.38-8.49-9.36-1.67-.76-7.56-4.15-9.56-5.39a44,44,0,0,1-6-4.39,35.52,35.52,0,0,1-2.72-2.63,12,12,0,0,1-2.26-2.82c-.1-.23-.17-.5-.26-.74a12.33,12.33,0,0,1-.6-2.05c-.15-.73-.25-1.8-.95-2.23a5.87,5.87,0,0,0-3.14-.34,24.13,24.13,0,0,0-3.39.52c-1.29.3-4.54.1-5.3,1.32a6.5,6.5,0,0,0-.69,3.19c0,.52,0,1,0,1.55,0,.22.1.61-.21.52s-.63-.84-.74-1.1c-.25-.58-.41-1.19-.68-1.75a5.25,5.25,0,0,0-1.12-1.85c-1.48-1.22-2.89-1-3.32-1.38C276.84,393.7,276.68,392.77,276.63,392.34Z" style="fill:#37474f"></path><path d="M319.24,413.92c-11.07.89-14.49,7.77-14.91,12a25.9,25.9,0,0,0,7.88,1.56c7.66,0,12.9-2.1,14.41-4.86C328.37,419.4,327.13,416.82,319.24,413.92Z" style="fill:#fafafa"></path><path d="M302.63,414.22a.55.55,0,0,1-.43-.88,13,13,0,0,1,10-4.06.54.54,0,0,1-.11,1.08,12,12,0,0,0-9,3.65A.59.59,0,0,1,302.63,414.22Z" style="fill:#f0f0f0"></path><path d="M297.83,411.49a.59.59,0,0,1-.35-.12.54.54,0,0,1-.08-.76,13,13,0,0,1,10-4.06.54.54,0,0,1-.11,1.08,12,12,0,0,0-9,3.65A.57.57,0,0,1,297.83,411.49Z" style="fill:#f0f0f0"></path><path d="M293.37,408.36a.55.55,0,0,1-.43-.88,13,13,0,0,1,10-4.06.54.54,0,0,1,.49.59.55.55,0,0,1-.59.49,12.09,12.09,0,0,0-9,3.65A.53.53,0,0,1,293.37,408.36Z" style="fill:#f0f0f0"></path><path d="M289,405.23a.54.54,0,0,1-.34-.12.53.53,0,0,1-.1-.75c2.1-2.71,6.87-4.52,10.9-4.13a.54.54,0,0,1-.1,1.08c-3.63-.35-8.08,1.31-9.94,3.71A.53.53,0,0,1,289,405.23Z" style="fill:#f0f0f0"></path><path d="M222.43,430.53c-.87,5.15-2.06,8.5-4.24,11.34s-5.75,3.41-9.17,2.13-7.66-4.16-8.17-8.75-.76-7.72.57-12.44Z" style="fill:#263238"></path><path d="M209.83,391.33c-1.46-.05-1.84,6.87-3.45,13.75-1.72,7.38-3.13,10.22-4.61,16.26-1.69,6.9-.88,10.16,1.11,14.66s10.2,9.62,15.16,4c4-4.56,4.78-10,5.24-17.05.47-7.27,1.72-12,2.91-17.44,1.24-5.58,2.57-10.64,1.37-11.36a48.25,48.25,0,0,1-1.48,5.55c-.19.38-.86,1.29-.92-.2,0-.44.23-1.43.24-1.86a1.87,1.87,0,0,0-1.13-1.82,14.06,14.06,0,0,0-6-2c-2.82-.33-5.26-.69-6.93-.06-1,.38-1.08,1.29-1.28,2.16-.24,1-.33,1.69-.56,1.45C209,396.89,209.9,392.1,209.83,391.33Z" style="fill:#37474f"></path><path d="M200.92,425.35a17.6,17.6,0,0,0,1.53,10.94c2,4.51,10.9,9.71,15.86,4.13,2.46-2.78,3.43-6.29,4.12-9.89C220.39,425.57,205.41,421.82,200.92,425.35Z" style="fill:#fafafa"></path><path d="M220.12,422.56a.45.45,0,0,1-.18-.07c-.05,0-6.45-3.55-13.14-2.76a.55.55,0,0,1-.6-.47.54.54,0,0,1,.47-.6c7.08-.83,13.6,2.77,13.85,2.91a.55.55,0,0,1,.17.75A.53.53,0,0,1,220.12,422.56Z" style="fill:#f0f0f0"></path><path d="M207.7,414.55a.52.52,0,0,1-.41-.41.54.54,0,0,1,.41-.65c6.74-1.48,13.58,2.62,13.84,2.8a.54.54,0,0,1,.14.75.55.55,0,0,1-.75.14c-.06,0-6.73-4-13-2.63A.59.59,0,0,1,207.7,414.55Z" style="fill:#f0f0f0"></path><path d="M208.48,409.65a.54.54,0,0,1-.42-.4.55.55,0,0,1,.4-.65c7.43-1.77,13.87,2.6,14.11,2.78a.54.54,0,0,1-.66.86s-6.28-4.23-13.19-2.59A.49.49,0,0,1,208.48,409.65Z" style="fill:#f0f0f0"></path><path d="M209.37,404.85a.54.54,0,0,1,0-1.05c7-1.77,13.93,2.75,14.18,2.94a.52.52,0,0,1,.12.75.53.53,0,0,1-.76.12c-.06,0-6.8-4.41-13.28-2.77A.49.49,0,0,1,209.37,404.85Z" style="fill:#ebebeb"></path><path d="M229.12,202.51c-4,15.4-5.63,19.19-7.94,53.49-2.23,33.26-2.41,38.14-2.74,42.15-.75,9.19-4.82,12.36-6,34.05-1.09,19.87-1.74,44.38-1.74,44.38s2.67,3.68,10.24,4.36c7,.62,10.48-2,10.48-2s12.94-46.32,16.56-58c4.9-15.83,11.79-43.62,11.79-43.62l4.56,31.8s-1.47,15.24,1.49,29.62c3.66,17.84,7.4,37.21,7.4,37.21a23.75,23.75,0,0,0,10.52,1.31c8.18-.82,10.91-2.72,10.91-2.72s2.29-53.88,2.29-73.56-.44-67.85-3.1-98.48Z" style="fill:#455a64"></path><path d="M259.76,277.33l5.67-34.43s11.39-3,18.71-10.66c-.54,5.71-10.68,13-15.42,14.16l-6.34,30.51,1.94,32.22Z" style="fill:#37474f"></path><path d="M246.53,207.85a46.32,46.32,0,0,0-4.27,9,86.34,86.34,0,0,0-2.85,9.58c-.75,3.24-1.37,6.51-1.8,9.8a65,65,0,0,0-.66,10c.8-3.24,1.53-6.45,2.27-9.66s1.45-6.43,2.23-9.62,1.55-6.39,2.36-9.57S245.54,211,246.53,207.85Z" style="fill:#37474f"></path><path d="M242.18,209.05a35.33,35.33,0,0,0-4.5,5,49.05,49.05,0,0,0-3.66,5.68,43.5,43.5,0,0,0-2.78,6.19,26.68,26.68,0,0,0-1.52,6.61l3-6c1-2,2-3.91,3.12-5.83s2.13-3.86,3.19-5.81S241.2,211.1,242.18,209.05Z" style="fill:#37474f"></path><path d="M249.41,248.87c-1.43,10.31-2.72,20.65-4,31s-3.82,21.7-5.72,31.9-13.94,50.12-15.52,60.42c2.38-10.15,15.58-49.79,17.59-60S246,290.39,247,280,248.78,259.26,249.41,248.87Z" style="fill:#37474f"></path><path d="M286.46,248.87l1.7,27.14c.25,4.52.54,9,.75,13.56s.47,9.06.4,13.52-.38,47.83.24,56.9c1.06-10.1,1.55-47.74,1.86-56.87,0-9.17-.81-18.18-1.62-27.23S287.86,257.83,286.46,248.87Z" style="fill:#37474f"></path><path d="M272.36,371.6,273.9,381s3.78,2.41,11.71,1.59,9.07-3.39,9.07-3.39v-8.87s-1.9,1.84-9.14,2.66A31.18,31.18,0,0,1,272.36,371.6Z" style="fill:#37474f"></path><path d="M210.85,370l-.71,9.53s3.12,3.23,11,4.28,9.61-1.18,9.61-1.18l2.07-8.63s-2.28,1.35-9.51.46A31.18,31.18,0,0,1,210.85,370Z" style="fill:#37474f"></path></g><g id="freepik--Top--inject-182"><path d="M277.6,125.21c10.78.35,12.46,1.7,25.55,11.88,11.13,8.66,13.8,10.67,13.8,10.67s16.09,15.93,16.54,18.55.34,9.31-3.22,12.61c-2.88,2.68-5.09,1.27-7.15,1.47-4.29.41-7.64-2-9.43-3.09-12.09-7.2-25.93-15.47-25.93-15.47Z" style="fill:#37474f"></path><path d="M310.56,151.18a24.9,24.9,0,0,0,1.72,13.69,23.89,23.89,0,0,0,11.18,11.58c3.16,1.38,7.61,1.29,9.41-6.49,2.18-9.41-.41-18.17-2.27-29-2.54-14.67-3.3-18.29-3.34-22.5,0-2.7,1.17-7.63.5-10.29a36.87,36.87,0,0,0-3.36-8.91c-1.62-3.19-3.84-1.71-4.23-1.28-1.68-2.24-4.21-2.58-5.61-1.13a4.87,4.87,0,0,0-5.45,1.76c-1.44-.65-3.8,0-4,2a5.87,5.87,0,0,0,.62,2.32c-.34,1.22,1.33,6.6.21,8.06s-3,1.15-5.57,1.16-5.35.95-6.23,2.62c-.7,1.33.06,2.06,1.32,2.27s4,.11,6.15.43c3.15.47,4.38.55,5.84,1.48a24.37,24.37,0,0,1,4.68,3.63c1,1.2,2.05,2.74,1.82,7.27S311.4,146.12,310.56,151.18Z" style="fill:#c8856a"></path><path d="M318.58,108.37v0l0,.09a1.25,1.25,0,0,0,.81,1.19.9.9,0,0,0,.71-.13,1.56,1.56,0,0,0,.54-.65,25.11,25.11,0,0,0,1.51-3.75v.1h0v-.1c.23-.73.41-1.51.71-2.23.14-.36.32-.71.49-1.06a2.66,2.66,0,0,0,.3-1.11,3,3,0,0,1-.22,1.14c-.15.37-.3.72-.42,1.09a23.09,23.09,0,0,0-.55,2.25v-.1h0l0,0,0,0a23.71,23.71,0,0,1-1.28,3.93,2.16,2.16,0,0,1-.69.94,1.58,1.58,0,0,1-1.23.3,1.7,1.7,0,0,1-1.1-.67,2.74,2.74,0,0,1-.47-1.12l0,.09v0Z" style="fill:#af6152"></path><path d="M324.61,102.91a3.2,3.2,0,0,1-.86,1,6.1,6.1,0,0,1-1.14.72l-.16-.41A4.28,4.28,0,0,0,324.61,102.91Z" style="fill:#af6152"></path><path d="M314.55,96.9A11.55,11.55,0,0,1,315,99c.1.71.19,1.43.25,2.14l.1,1,0,1.08.09,2.17v.09l0,2.26,0,1.13a2.32,2.32,0,0,0,.08,1,.89.89,0,0,0,.56.47.68.68,0,0,0,.67-.12,3.4,3.4,0,0,0,1-1.69v0l0,0,0-.12a19.2,19.2,0,0,0,.5-2.53l.46-2.66c.15-.88.3-1.77.52-2.65.1-.43.21-.87.34-1.31a3,3,0,0,1,.57-1.22,3.48,3.48,0,0,0-.39,1.27c-.08.44-.14.88-.19,1.32l-.29,2.67L319,106l-.17,1.35a7.61,7.61,0,0,1-.3,1.41l0-.12,0,.15v0h0a4.06,4.06,0,0,1-1.29,2.15,1.6,1.6,0,0,1-1.47.26,1.9,1.9,0,0,1-.63-.37,1.46,1.46,0,0,1-.45-.62,3,3,0,0,1-.14-1.28l.05-1.14.1-2.27v0h0v-.07l0-2.11,0-1.06,0-1.08A32,32,0,0,0,314.55,96.9Z" style="fill:#af6152"></path><path d="M309.11,98.66a29.7,29.7,0,0,1,2.57,6.78l.35,1.78a9.88,9.88,0,0,0,.45,1.66c.21.54.45,1,1,1a1.94,1.94,0,0,0,1.53-.6,2,2,0,0,1-1.54,1,1.41,1.41,0,0,1-1-.37,2.87,2.87,0,0,1-.58-.82,8,8,0,0,1-.64-1.77l-.39-1.75c-.26-1.16-.59-2.31-.89-3.47S309.35,99.85,309.11,98.66Z" style="fill:#af6152"></path><path d="M311.5,106.74l0,.21h0a6.73,6.73,0,0,1,.13,2.06,2.27,2.27,0,0,1-1.22,1.69,1.52,1.52,0,0,1-1.11.17,1.94,1.94,0,0,1-.95-.6,6,6,0,0,1-.89-1.9l-1.36-3.84c-.23-.64-.46-1.28-.68-1.93a6.23,6.23,0,0,1-.39-2,7,7,0,0,0,.6,1.93l.78,1.88c.54,1.25,1,2.55,1.47,3.8a5.82,5.82,0,0,0,.78,1.79,1.26,1.26,0,0,0,1.59.39,2,2,0,0,0,1.16-1.43,7.84,7.84,0,0,0,.06-2h0Z" style="fill:#af6152"></path><path d="M309.82,108.14a2.18,2.18,0,0,1-2.47-.83c.32.94.54,1.61.79,2.18.38.87,1.29,1.72,2.47.93s1.12-1.75.91-3.46A2.5,2.5,0,0,1,309.82,108.14ZM320.14,106a1.76,1.76,0,0,1-1.32-1.39c0,.12-.09.65-.15,1.1,0,.17,0,.33-.06.46h0c-.09.52-1.24,1.1-1.75,1.05s-1.36-.33-1.76-1.84a.38.38,0,0,1,0,.1,2.38,2.38,0,0,1-1.81,2,1.63,1.63,0,0,1-1.73-.56,7.72,7.72,0,0,0,.86,2.5c.74,1.24,2.16.44,2.57-.17a1.36,1.36,0,0,0,.71,1.35c.9.51,1.88-.15,2.45-2l0-.11c.25,1.76,1.85,1.88,2.51.93a19.83,19.83,0,0,0,1.66-4.28C322.16,105.82,321.3,106.3,320.14,106Z" style="fill:#af6152;opacity:0.5"></path><path d="M315.69,110.13a11.55,11.55,0,0,1,2.65,3.67,9.41,9.41,0,0,1,1,4.31A9.21,9.21,0,0,0,318,114a11.19,11.19,0,0,0-2.81-3.18Z" style="fill:#af6152"></path><path d="M324.14,120.4c-1.46.66-3.13.35-4.45.92s-4.21,1.8-6.7.12a20.3,20.3,0,0,0-6.6-3h0a9.86,9.86,0,0,1,1,.53,24.37,24.37,0,0,1,4.68,3.63c1,1.2,2.05,2.74,1.82,7.27,0,.27,0,.56-.07.88h0s.75-3.53,2-5.14,4.05-2.23,6.82-3.27S325.59,119.75,324.14,120.4Z" style="fill:#af6152"></path><g id="freepik--Chest--inject-182"><path d="M289.18,148.06c-1.31-9.48-2.56-22.23-17.26-22.81l-19.11-.91c-4.67,1.21-34.06,9.67-34.06,9.67l9.23,49.6s-2.09,20.75-2.53,33.55c13.58,8.61,51.66,8.11,66-.53C292,203.52,290.47,157.46,289.18,148.06Z" style="fill:#fafafa"></path><path d="M284.69,223.57v5.34a37.16,37.16,0,0,0,12.81-6.33l.13-6Z" style="fill:#263238"></path><path d="M294.74,159.64c-.51-12-2.46-22.4-6.94-28s-9.44-7.24-20.05-7.07v1.23c1.23.11,3.37,1.73,4.36,3.33,1.84,3,3.66,7.92,5.92,16.49,3.07,11.68,6.5,35.49,6.66,49.54s0,28.45,0,28.45,10.74-3.43,12.94-7c2-5.28-.15-6.43-.12-9.81C297.66,190.9,295.11,168.43,294.74,159.64Z" style="fill:#AEAEAE"></path><path d="M294.74,159.64c-.51-12-2.46-22.4-6.94-28s-9.44-7.24-20.05-7.07v1.23c1.23.11,3.37,1.73,4.36,3.33,1.84,3,3.66,7.92,5.92,16.49,3.07,11.68,6.5,35.49,6.66,49.54s0,28.45,0,28.45,10.74-3.43,12.94-7c2-5.28-.15-6.43-.12-9.81C297.66,190.9,295.11,168.43,294.74,159.64Z" style="opacity:0.30000000000000004"></path><path d="M222.57,218.5s-1.16,4.5-.92,5.81,2.08,3.08,8.54,5.28c5.77,2,16.79,5.54,26.5,5.21l.34-6.09Z" style="fill:#263238"></path><path d="M251.24,143.84c-1.51-6.4-6.67-13.28-8.22-19.5,0,0-2.7,2.35-10.42,2.83-4.54.28-7.89,4.2-10.84,5.48-5.92,2.58-6.93,8.72-4.57,17.33,0,0,3.89,18.56,5.95,30a64.31,64.31,0,0,1-.4,26.68c-.84,3.65-3.25,9.37-.11,11.9,8.61,7.44,34.4,10.18,34.4,10.18s.73-16.12,0-48.51C256.62,162,253.17,152,251.24,143.84Z" style="fill:#AEAEAE"></path><path d="M251.24,143.84c-1.51-6.4-6.67-13.28-8.22-19.5,0,0-2.7,2.35-10.42,2.83-4.54.28-7.89,4.2-10.84,5.48-5.92,2.58-6.93,8.72-4.57,17.33,0,0,3.89,18.56,5.95,30a64.31,64.31,0,0,1-.4,26.68c-.84,3.65-3.25,9.37-.11,11.9,8.61,7.44,34.4,10.18,34.4,10.18s.73-16.12,0-48.51C256.62,162,253.17,152,251.24,143.84Z" style="opacity:0.30000000000000004"></path></g><g id="freepik--Head--inject-182"><path d="M240.2,77.89a10.57,10.57,0,0,0-5.27-1c-2,.15-2.69.22-4.39,1.61a5.32,5.32,0,0,0-1.85,3.14,7.31,7.31,0,0,0,.74,5c.68,1.44,0,2.68-.4,4.11a4.9,4.9,0,0,0,1.44,5c1.27,1.09,3,2,3.77,3.5.94,1.83.87,4,1.81,5.84a14.23,14.23,0,0,0,3.08,4,20,20,0,0,1,2.13,2.86c.66.88,2,1.27,2.85,1.88.31.21,1.06,1.13,1.49,1,.59-.21.09-2.07.05-2.49-.16-1.63-.27-3.28-.48-4.91l-.79-6.33s3.68-5.85,3.79-10.45c.16-5.91-1.25-8.22-1.25-8.22C244.77,81,242.59,79,240.2,77.89Z" style="fill:#263238"></path><path d="M247.11,86.78a17.06,17.06,0,0,0,2.52,8.71c1.39,2.26,3.84,5.27,6.54,5.92a27.16,27.16,0,0,0,3,.47,24.21,24.21,0,0,0,10-1c2.39-.74,4.81-1.75,6.34-3.8a22.54,22.54,0,0,0,2.77-4.1c.23-.53.2-1.1.44-1.63.56-1.27,1.68-2.44,2-3.8a13.45,13.45,0,0,0-.1-3.64c-.07-1.34.73-2.38.74-3.7a4.81,4.81,0,0,0-1.06-3.29,14.51,14.51,0,0,0-1.39-1.64,9,9,0,0,0-2.62-1.42c-.83-.39-1.58-1-2.41-1.35a32,32,0,0,0-6.36-2.1,20.46,20.46,0,0,0-9.4.25c-3.17.84-6.16,3.65-8,6.28A17.08,17.08,0,0,0,247.11,86.78Z" style="fill:#263238"></path><path d="M237.52,110.49c3.84,1.19,5.69-1.38,5.69-1.38l2,19.42A20.79,20.79,0,0,0,265,135c4.1-.86,6.28-4.06,1.85-9.24l-.46-5.74a34.4,34.4,0,0,0,6.48-.53c4.13-1,6.51-4.46,7.44-9.07,1.48-7.42.43-20.08-2.93-33.74-4.95-3.29-22.61-.73-32,6.22,1.53,5.85,1.73,7.57,1.36,11.25s-1.57,5.44-2.63,5.68c-2,.44-2.45-1.7-3.83-3s-6.32-1.68-8.09,2.89S234.57,109.58,237.52,110.49Z" style="fill:#c8856a"></path><path d="M266.34,120c-6.71-.18-15.34-2.68-17.69-5.58a22.52,22.52,0,0,1-3.31-5.33s.42,4.15,2.24,6.7,8.47,6.75,18.95,6.7Z" style="fill:#af6152"></path><path d="M276.21,66.2a3.45,3.45,0,0,1-1.65-1.28,14.72,14.72,0,0,0-1.9-3.11,6.27,6.27,0,0,0-5-2c-1.72.08-3.26,1.28-4.94,1.68s-2.65-.37-4.14-1.14c-1.86-1-4.8-.72-6.73,0a6.38,6.38,0,0,0-2.36,1.48c-.62.65-.91,1.59-1.69,2.1-1.4.91-3.74.11-5.31.09-2.78,0-4.94,1-5.34,3.37-.18,1-.14,1.78-.3,2.7A3,3,0,0,1,235.54,72,5.29,5.29,0,0,0,233,75.28a5.17,5.17,0,0,0,1.75,5.2c1.42,1,3.87,1.72,5.61,1,.35,1.53,2.32,2.5,3.81,2.56a6.41,6.41,0,0,0,2.54-.18c.28-.1,2.45-1.25,2.18-1.66a5.2,5.2,0,0,0,4.4,2.15,5.87,5.87,0,0,0,5.16-3c-.39.73.86,1.68,1.36,2a5.53,5.53,0,0,0,2.75.59,4.57,4.57,0,0,0,4-2.4A3.21,3.21,0,0,1,269.74,80a13.92,13.92,0,0,0,3.62.3,4.43,4.43,0,0,0,3.75-2.76,4.48,4.48,0,0,0-.09-3.08c1.17,1.59,4.46,2,4.58-.53a.87.87,0,0,1-1.48-.38c-.22-.84.61-1.79.72-2.62A3.8,3.8,0,0,0,278.49,67C277.75,66.7,276.94,66.5,276.21,66.2Z" style="fill:#263238"></path><path d="M261.25,94.7a2,2,0,1,1-2.12-1.9A2,2,0,0,1,261.25,94.7Z" style="fill:#263238"></path><path d="M258.59,88.06l-4.38,2a2.51,2.51,0,0,1,1.24-3.26A2.35,2.35,0,0,1,258.59,88.06Z" style="fill:#263238"></path><path d="M277,87.12l-4.74-1a2.32,2.32,0,0,1,2.79-1.9A2.54,2.54,0,0,1,277,87.12Z" style="fill:#263238"></path><path d="M276.52,92.65a2,2,0,0,1-1.81,2.18,2,2,0,1,1,1.81-2.18Z" style="fill:#263238"></path><path d="M275.36,100.05l-7,2.94-2.81-12.44C268.52,90.55,271.93,95.05,275.36,100.05Z" style="fill:#af6152"></path><path d="M262.33,105.93l6.65,2a3.41,3.41,0,0,1-4.28,2.42A3.63,3.63,0,0,1,262.33,105.93Z" style="fill:#af6152"></path><path d="M262.21,107a3.59,3.59,0,0,0,2.49,3.44,3.21,3.21,0,0,0,2.31-.15A5.33,5.33,0,0,0,262.21,107Z" style="fill:#f28f8f"></path></g><path d="M266.8,125.78c5.41,7,13.53,26.44,15.32,41.3.65-6.4,1.4-22.74,0-26.85a39.15,39.15,0,0,0-4.57-8.49s1-3.22.7-3.63c-1.44-1.92-11.78-6.39-11.78-6.39Z" style="fill:#263238"></path><path d="M244.4,120.62l.47,4.52c2.66,5.1,5.51,9.74,7.68,19a180.86,180.86,0,0,1,3.85,25.5s-10.49-17.59-12.91-22.28c-1.53-3-.62-11.88-.62-11.88s-5.47-1.48-6.19-2.25c-1-1.05.87-6.87.87-6.87Z" style="fill:#263238"></path><path d="M232.6,127.17c-13.85-1.56-14.7,1-28.33,12.75-8.8,7.57-20.71,16.16-21.38,25.22-.7,9.31,3.37,13,5.24,15.38s7.13,2.75,9.43-.26c3-1.28,4.29-2.56,7.32-4.73,8.18-5.87,16.9-12.07,19.76-14.42C231.88,155.16,235.43,140.52,232.6,127.17Z" style="fill:#37474f"></path><path d="M213.17,106.65c-.09,1.48.53,2.25,2.27,2.66s3.81.29,6.54,1.4a6.64,6.64,0,0,1,4.2,5.21c.07,1.47-.52,2.24-1.48,2s-2.71-1.72-5.59-2.19c-2.59-.41-3.93-.1-6.77.53s-3.88,1-7.46,1.54c-1.87.28-3.95,1.62-4.26,6.65-.21,3.38.54,13.08,2,24.71,1,8.22,1.1,9.54,0,17.31-.84,5.89-7.14,12.57-10.22,12.76-6.77.44-12.54-11.93-12.5-19.62s2.44-18.41,4.33-27.45c2.13-10.2,3.25-15,3.85-17.35.71-2.74,1.88-4.35,2.64-7.48.86-3.53,3.09-9.66,4.43-11.58s4.83-2.06,7.44-2.33,3.09.19,3.3.92c2.61-.31,4.59-.65,5.06.51,3.11-.15,4.36-.25,4.87,1.44,2.07.11,2.57.55,2.84,1.54.17.62.32,1.68-1,3.71A28.18,28.18,0,0,1,213.17,106.65Z" style="fill:#c8856a"></path><path d="M202.17,96.58a6.24,6.24,0,0,0,.16,2,12.57,12.57,0,0,0,.58,1.86l0,.09,0,.09a8.91,8.91,0,0,0-.74,2.2,3.51,3.51,0,0,0,.12,2.12,1.65,1.65,0,0,0,.67.69l.1.05s0,0,0,0,.05,0,.1,0a2.9,2.9,0,0,0,.36-.35c.49-.58.94-1.24,1.39-1.89a9.46,9.46,0,0,0,1.13-2,5.16,5.16,0,0,0,.1-1.1c0-.39,0-.79,0-1.18a47.28,47.28,0,0,0-.28-4.75,24.31,24.31,0,0,1,.77,4.73c0,.4.05.8.07,1.2a4.27,4.27,0,0,1-.06,1.27,8.67,8.67,0,0,1-1.16,2.2,21.33,21.33,0,0,1-1.43,2,2.81,2.81,0,0,1-.5.46.94.94,0,0,1-.45.18.78.78,0,0,1-.31,0l-.17-.08a2.26,2.26,0,0,1-1-1,4,4,0,0,1-.09-2.56,9.85,9.85,0,0,1,.93-2.27v.19a8.24,8.24,0,0,1-.43-2A5.43,5.43,0,0,1,202.17,96.58Z" style="fill:#af6152"></path><path d="M199.08,96.32A4.17,4.17,0,0,0,200.41,98a3.34,3.34,0,0,0,1.91.62l-.07.73a3.81,3.81,0,0,1-2.08-1.08A4.22,4.22,0,0,1,199.08,96.32Z" style="fill:#af6152"></path><path d="M202.62,100.08a4.43,4.43,0,0,1-1.54.27,6.9,6.9,0,0,1-1.51-.12A6.3,6.3,0,0,1,196.91,99l0,0a7,7,0,0,0,2.7.87,4.52,4.52,0,0,0,2.67-.39Z" style="fill:#af6152"></path><path d="M211,94.85a4.39,4.39,0,0,1,.17,2.41c-.15.8-.38,1.57-.59,2.35a41,41,0,0,1-1.5,4.64,25.85,25.85,0,0,1-3.31,3.6,2.68,2.68,0,0,1-1.12.72,1.58,1.58,0,0,1-1.39-.31,2.19,2.19,0,0,1-.78-1.16,3.46,3.46,0,0,1-.17-1.32l.73.06a2.3,2.3,0,0,0,.6,1.91,1,1,0,0,0,.86.25,2.19,2.19,0,0,0,.9-.54,25.85,25.85,0,0,0,3.3-3.42,40.63,40.63,0,0,0,1.62-4.5c.24-.77.51-1.53.69-2.31a4.3,4.3,0,0,0-.06-2.36Z" style="fill:#af6152"></path><path d="M215.79,96.3a4.28,4.28,0,0,1-.22,2.18,13,13,0,0,1-.89,2c-.72,1.29-1.51,2.52-2.28,3.78a11.37,11.37,0,0,1-1.32,1.82,19.32,19.32,0,0,1-1.69,1.47l-.88.68a3.09,3.09,0,0,1-1.06.58,1.76,1.76,0,0,1-1.31-.1,2.35,2.35,0,0,1-.93-.89l.63-.37a1.28,1.28,0,0,0,1.45.74,7.26,7.26,0,0,0,1.77-1.08,20.56,20.56,0,0,0,1.7-1.35,11.9,11.9,0,0,0,1.33-1.7c.82-1.22,1.67-2.43,2.43-3.67a12.36,12.36,0,0,0,1-2A4.19,4.19,0,0,0,215.79,96.3Z" style="fill:#af6152"></path><path d="M213.17,106.65a8.84,8.84,0,0,1-2,1.78,4.17,4.17,0,0,1-.63.33,1.24,1.24,0,0,1-.83,0,1.52,1.52,0,0,1-.95-1.29l.73,0a.89.89,0,0,0,.43.83.66.66,0,0,0,.48.06,3.53,3.53,0,0,0,.59-.22A8.39,8.39,0,0,0,213.17,106.65Z" style="fill:#af6152"></path><path d="M200.4,117.59a6.93,6.93,0,0,1-2.84-1.74c-.64-.46,1.74,2.28,2.34,5.44a52,52,0,0,1,.54,5.38h0c0-.8.14-1.59.18-2.21.31-5,2.39-6.37,4.26-6.65A10.05,10.05,0,0,1,200.4,117.59Z" style="fill:#af6152"></path><path d="M204.08,108.05a6.66,6.66,0,0,1,.36,3.32,8.85,8.85,0,0,1-1,3.09,8.54,8.54,0,0,0,.59-3.11,6.09,6.09,0,0,0-.65-3Z" style="fill:#af6152"></path></g></g></g><g id="freepik--Crown--inject-182"><g id="freepik--crown--inject-182"><path d="M240.16,48c-.31.92-.86,2.43-1.92,2.48a2.68,2.68,0,0,1-1.3-.43,12.3,12.3,0,0,1-1.32-.77A30.22,30.22,0,0,1,231,45.13c-.21-.21-.81,0-.67.44a32.34,32.34,0,0,1,1.76,4.52,5.23,5.23,0,0,1-.87,4.25c-1.11,1.38-2.7,1-4,.8a18.18,18.18,0,0,1-4.32-1.39c-1.44-.67-2.65-1.17-4.41-1.9-.19-.08-.61.27-.41.5a44.68,44.68,0,0,1,5.23,7.85,2.48,2.48,0,0,1,.4,2.12,2.8,2.8,0,0,1-1.47,1.48,7.65,7.65,0,0,1-2.17.53,15.66,15.66,0,0,1-2,.14,13.27,13.27,0,0,1-4.37-.73c-.26-.1-.75.3-.43.54a18.81,18.81,0,0,1,4.27,4.57,3.2,3.2,0,0,1,.66,2.53,3.56,3.56,0,0,1-1.85,2,17.67,17.67,0,0,1-3.43,1.4c-.26.09-.54.57-.2.66a107.32,107.32,0,0,1,11.91,4.25c.14.06.64,0,.7-.19a33.92,33.92,0,0,1,8.41-14.09c1.46-1.49,6.24-5.81,10.45-7.16.33-.11-.11-.4-.36-.31-2.26.81-5.11,1.85-10.49,7.1a35.59,35.59,0,0,0-8.53,13.79,112.6,112.6,0,0,0-10.68-3.77,18.54,18.54,0,0,0,2.29-1A5.34,5.34,0,0,0,218.64,72a3,3,0,0,0-.08-2.84,13.67,13.67,0,0,0-1.94-2.72,18.18,18.18,0,0,0-1.7-1.7,14.65,14.65,0,0,0,2.66.31,12.63,12.63,0,0,0,4.52-.59c1.3-.48,2.68-1.79,2.35-3.35a8.15,8.15,0,0,0-1-2.17q-.63-1.16-1.32-2.25a44.45,44.45,0,0,0-2.84-4c1,.58,2.18,1.16,3.26,1.67a18.61,18.61,0,0,0,4.66,1.47c1.41.25,3,.43,4.33-.92a5.78,5.78,0,0,0,1.39-4.29,10.18,10.18,0,0,0-1.09-3.49,21.82,21.82,0,0,0,4,3.15c.84.49,1.89,1.15,3,.69a3.27,3.27,0,0,0,1.56-1.67,24.16,24.16,0,0,0,2,5.73,23.69,23.69,0,0,0,1.77,2.7c.16.18.57,0,.35-.26A19.31,19.31,0,0,1,243,54.67a35.81,35.81,0,0,1-2.14-6.8C240.85,47.48,240.28,47.61,240.16,48Z" style="fill:#AEAEAE"></path><path d="M210.64,72.62a1.84,1.84,0,0,0-1.47,1.09,1,1,0,0,0,0,.47,2.37,2.37,0,0,0,.31,1.33,1.37,1.37,0,0,0,2,.44,2.09,2.09,0,0,0,.72-2.09A1.54,1.54,0,0,0,210.64,72.62Zm.93,1.16a1.7,1.7,0,0,1-.26,1.65.84.84,0,0,1-1.35,0,1.9,1.9,0,0,1-.33-1.49,1.47,1.47,0,0,1,.82-.82A1,1,0,0,1,211.57,73.78Z" style="fill:#AEAEAE"></path><path d="M216.58,48.21a1.67,1.67,0,0,0-1.09.52,1.76,1.76,0,0,0-.37.56.88.88,0,0,0-.06.47,2.58,2.58,0,0,0,.31,1.34,1.37,1.37,0,0,0,2,.44,2.08,2.08,0,0,0,.72-2.1A1.53,1.53,0,0,0,216.58,48.21Zm.94,1.16a1.71,1.71,0,0,1-.27,1.64.83.83,0,0,1-1.34,0,1.92,1.92,0,0,1-.34-1.49,1.44,1.44,0,0,1,.83-.83A1,1,0,0,1,217.52,49.37Z" style="fill:#AEAEAE"></path><path d="M229.8,41.16a1.47,1.47,0,0,0-.53.16h-.05a1.78,1.78,0,0,0-.93,1.89,1.24,1.24,0,0,0,1.55.89,1.81,1.81,0,0,0,1.27-1.67A1.18,1.18,0,0,0,229.8,41.16Zm.77,1.2a1.37,1.37,0,0,1-.76,1.28.8.8,0,0,1-.61,0,.73.73,0,0,1-.4-.47,1.34,1.34,0,0,1,.11-.91,1.24,1.24,0,0,1,.18-.22,1.67,1.67,0,0,1,.59-.4.61.61,0,0,1,.57.07A.82.82,0,0,1,230.57,42.36Z" style="fill:#AEAEAE"></path><path d="M211.14,61.32a1.73,1.73,0,0,0-.52.16h-.05a1.79,1.79,0,0,0-.93,1.89,1.23,1.23,0,0,0,1.55.89,1.81,1.81,0,0,0,1.27-1.67A1.19,1.19,0,0,0,211.14,61.32Zm.78,1.2a1.36,1.36,0,0,1-.76,1.28.8.8,0,0,1-.61,0,.73.73,0,0,1-.4-.47,1.4,1.4,0,0,1,.1-.91,2,2,0,0,1,.19-.22,1.82,1.82,0,0,1,.59-.4.61.61,0,0,1,.57.07A.82.82,0,0,1,211.92,62.52Z" style="fill:#AEAEAE"></path><path d="M240.57,44.32a1.5,1.5,0,0,0-1,0h0a1.67,1.67,0,0,0-.88.65.17.17,0,0,0,.11.25,1.68,1.68,0,0,0,0,.59,1.14,1.14,0,0,0,1.29.94,1.43,1.43,0,0,0,1.26-1.1A1.22,1.22,0,0,0,240.57,44.32Zm.24,1.18a1,1,0,0,1-.23.57,1,1,0,0,1-.46.26.74.74,0,0,1-.26,0h-.18l0,0a.46.46,0,0,1-.21-.16.85.85,0,0,1-.16-.28,1,1,0,0,1,.08-.76.81.81,0,0,1,.17-.24,1.21,1.21,0,0,1,.2-.09.93.93,0,0,1,.58-.07.61.61,0,0,1,.18.09.73.73,0,0,1,.18.17A.88.88,0,0,1,240.81,45.5Z" style="fill:#AEAEAE"></path><path d="M239.27,56.35a33.42,33.42,0,0,0-4.5,2.51,30.72,30.72,0,0,0-4,3.15,34.41,34.41,0,0,0-6.12,7.55c-.47.79-.84,1.62-1.23,2.43s-.76,1.58-1.08,2.41c-.09.25.32.3.44.12.88-1.31,1.42-2.83,2.19-4.21a25.65,25.65,0,0,1,2.58-3.91,42,42,0,0,1,7.18-6.85c.71-.54,1.47-1,2.24-1.5a25.33,25.33,0,0,0,2.35-1.51C239.4,56.48,239.35,56.31,239.27,56.35Z" style="fill:#AEAEAE"></path></g></g><g id="freepik--Sparkles--inject-182"><g id="freepik--Shine--inject-182"><g id="freepik--shine--inject-182"><path d="M159.35,134.82a.21.21,0,0,1-.2-.19l-.51-5.67a1,1,0,0,0-.89-.9l-4.44-.49a.21.21,0,0,1-.19-.21.21.21,0,0,1,.19-.2l4.44-.49a1,1,0,0,0,.89-.91l.51-5.67a.2.2,0,0,1,.2-.18.21.21,0,0,1,.21.18l.51,5.67a1,1,0,0,0,.89.91l4.44.49a.2.2,0,0,1,.18.2.21.21,0,0,1-.18.21l-4.44.49a1,1,0,0,0-.89.9l-.51,5.67A.21.21,0,0,1,159.35,134.82Zm-4.16-7.46,2.6.29a1.42,1.42,0,0,1,1.26,1.28l.3,3.4.31-3.4a1.42,1.42,0,0,1,1.25-1.28l2.6-.29-2.6-.29a1.42,1.42,0,0,1-1.25-1.27l-.31-3.41-.3,3.41h0a1.42,1.42,0,0,1-1.26,1.27Zm3.65-1.58h0Z" style="fill:#AEAEAE"></path><g style="opacity:0.5"><path d="M169.22,123.55a.21.21,0,0,1-.2-.19l-.35-3.86a.61.61,0,0,0-.55-.56l-3-.33a.21.21,0,0,1-.18-.21.2.2,0,0,1,.18-.2l3-.33a.62.62,0,0,0,.55-.56l.35-3.86a.21.21,0,0,1,.2-.19.21.21,0,0,1,.21.19l.35,3.86a.62.62,0,0,0,.54.56l3,.33a.2.2,0,0,1,.18.2.21.21,0,0,1-.18.21l-3,.33a.61.61,0,0,0-.54.56l-.35,3.86A.22.22,0,0,1,169.22,123.55ZM167,118.4l1.19.14a1,1,0,0,1,.91.92l.14,1.6.15-1.6a1,1,0,0,1,.91-.92l1.18-.14-1.18-.13a1,1,0,0,1-.91-.93l-.15-1.59-.14,1.59h0a1,1,0,0,1-.91.93Zm1.9-1.07Z" style="fill:#AEAEAE"></path></g></g><g id="freepik--shine--inject-182"><path d="M181.91,87.33a.17.17,0,0,1-.17-.15l-.42-4.68a.83.83,0,0,0-.73-.75l-3.67-.4a.17.17,0,0,1-.15-.17.18.18,0,0,1,.15-.17l3.67-.4a.83.83,0,0,0,.73-.75l.42-4.68a.18.18,0,0,1,.17-.15.17.17,0,0,1,.17.15l.42,4.68h0a.84.84,0,0,0,.74.75l3.66.4a.17.17,0,0,1,.15.17.16.16,0,0,1-.15.17l-3.66.4a.85.85,0,0,0-.74.75l-.42,4.68A.16.16,0,0,1,181.91,87.33Zm-3.43-6.15,2.15.24a1.17,1.17,0,0,1,1,1l.25,2.81.26-2.81a1.16,1.16,0,0,1,1-1l2.15-.24-2.15-.24a1.16,1.16,0,0,1-1-1l-.26-2.81-.25,2.81a1.17,1.17,0,0,1-1,1Z" style="fill:#AEAEAE"></path><g style="opacity:0.5"><path d="M173.44,88.91a.13.13,0,0,1-.14-.13l-.24-2.6a.41.41,0,0,0-.37-.38l-2-.22a.14.14,0,0,1,0-.28l2-.22a.41.41,0,0,0,.37-.38l.24-2.6a.13.13,0,0,1,.14-.13h0a.13.13,0,0,1,.13.13l.24,2.6a.42.42,0,0,0,.37.38l2,.22a.14.14,0,0,1,0,.28l-2,.22a.42.42,0,0,0-.37.38l-.24,2.6A.13.13,0,0,1,173.44,88.91Zm-1.51-3.47.79.09a.69.69,0,0,1,.62.62l.1,1.08.09-1.07a.69.69,0,0,1,.62-.63l.8-.09-.8-.09a.69.69,0,0,1-.62-.62h0l-.09-1.07-.1,1.07a.69.69,0,0,1-.62.63Z" style="fill:#AEAEAE"></path></g></g><g id="freepik--shine--inject-182"><path d="M351.53,117.18a.18.18,0,0,1-.18-.16l-.44-4.92a.88.88,0,0,0-.77-.79l-3.86-.42a.18.18,0,0,1,0-.36l3.86-.42a.88.88,0,0,0,.77-.79l.44-4.92a.18.18,0,0,1,.36,0l.44,4.92a.88.88,0,0,0,.77.79l3.85.42a.18.18,0,0,1,0,.36l-3.85.42a.88.88,0,0,0-.77.79l-.44,4.92A.18.18,0,0,1,351.53,117.18Zm-3.61-6.47,2.26.25a1.23,1.23,0,0,1,1.08,1.11l.27,3,.27-3a1.22,1.22,0,0,1,1.08-1.11l2.26-.25-2.26-.25a1.22,1.22,0,0,1-1.08-1.11h0l-.27-2.95-.27,2.95a1.23,1.23,0,0,1-1.08,1.11Z" style="fill:#AEAEAE"></path><g style="opacity:0.5"><path d="M343.71,121.24a.18.18,0,0,1-.18-.17l-.3-3.34a.53.53,0,0,0-.48-.49l-2.62-.29a.18.18,0,0,1-.16-.18.17.17,0,0,1,.16-.17l2.62-.29a.53.53,0,0,0,.48-.49l.3-3.34a.18.18,0,0,1,.18-.17.17.17,0,0,1,.17.17l.31,3.34h0a.53.53,0,0,0,.47.49l2.63.29a.16.16,0,0,1,.15.17.17.17,0,0,1-.15.18l-2.63.29a.53.53,0,0,0-.47.49l-.31,3.34A.17.17,0,0,1,343.71,121.24Zm-1.94-4.47,1,.12a.88.88,0,0,1,.79.8l.13,1.39.12-1.39a.88.88,0,0,1,.79-.8l1-.12-1-.11a.89.89,0,0,1-.79-.81l-.12-1.38-.13,1.38a.89.89,0,0,1-.79.81Z" style="fill:#AEAEAE"></path></g><g style="opacity:0.5"><path d="M356.81,127.54a.18.18,0,0,1-.18-.16l-.3-3.35a.55.55,0,0,0-.48-.49l-2.62-.29a.17.17,0,0,1-.16-.17.18.18,0,0,1,.16-.18l2.62-.29a.54.54,0,0,0,.48-.48l.3-3.35a.18.18,0,0,1,.18-.16.17.17,0,0,1,.17.16l.31,3.35h0a.53.53,0,0,0,.47.48l2.62.29a.18.18,0,0,1,.16.18.17.17,0,0,1-.16.17l-2.62.29a.54.54,0,0,0-.47.49l-.31,3.35A.17.17,0,0,1,356.81,127.54Zm-1.95-4.46,1,.11a.9.9,0,0,1,.79.81l.13,1.38.12-1.38a.9.9,0,0,1,.79-.81l1-.11-1-.12a.88.88,0,0,1-.79-.8l-.12-1.39-.13,1.39a.88.88,0,0,1-.79.8Z" style="fill:#AEAEAE"></path></g></g><g id="freepik--shine--inject-182" style="opacity:0.5"><path d="M320.17,80.6a.17.17,0,0,1-.17-.16l-.3-3.28a.53.53,0,0,0-.47-.48l-2.56-.28a.17.17,0,0,1-.16-.17.18.18,0,0,1,.16-.18l2.56-.28a.53.53,0,0,0,.47-.48L320,72a.17.17,0,0,1,.17-.16.17.17,0,0,1,.17.16l.3,3.28a.53.53,0,0,0,.46.47l2.57.28a.18.18,0,0,1,.16.18.17.17,0,0,1-.16.17l-2.57.28a.53.53,0,0,0-.46.48l-.3,3.28A.17.17,0,0,1,320.17,80.6Zm-1.9-4.37,1,.11a.88.88,0,0,1,.78.79l.12,1.36.12-1.36a.87.87,0,0,1,.78-.79l1-.11-1-.11a.88.88,0,0,1-.78-.79h0L320.17,74l-.12,1.36a.89.89,0,0,1-.78.79Z" style="fill:#AEAEAE"></path></g><g id="freepik--shine--inject-182"><path d="M332.36,88.94a.18.18,0,0,1-.17-.17l-.45-4.91a.87.87,0,0,0-.77-.79l-3.85-.43a.17.17,0,0,1-.16-.17.18.18,0,0,1,.16-.18l3.85-.43a.85.85,0,0,0,.77-.78l.45-4.92a.17.17,0,0,1,.17-.16.18.18,0,0,1,.18.16l.44,4.92a.87.87,0,0,0,.78.78l3.85.43a.18.18,0,0,1,.16.18.17.17,0,0,1-.16.17l-3.85.43a.89.89,0,0,0-.78.79l-.44,4.91A.18.18,0,0,1,332.36,88.94Zm-3.61-6.47,2.26.25a1.23,1.23,0,0,1,1.09,1.11l.26,3,.27-3a1.23,1.23,0,0,1,1.09-1.11l2.25-.25-2.25-.25a1.23,1.23,0,0,1-1.09-1.11h0l-.27-3-.26,3A1.23,1.23,0,0,1,331,82.22Z" style="fill:#AEAEAE"></path></g></g></g><g id="freepik--Sunglasses--inject-182"><g id="freepik--Glasses--inject-182"><path d="M286.55,90.88c-.11-1.08-.24-2.16-.35-3.24,0-.23-.16-.21-.32-.19l-1.51.17-41.48,4.66c.07.62.14,1.2.2,1.81l1.82-.2c.06.61.13,1.18.2,1.79l1.8-.2c.07.62.13,1.19.2,1.8l1.8-.2c.07.61.14,1.19.2,1.8l1.82-.21c.07.62.13,1.2.2,1.77L263.75,99c-.06-.6-.13-1.17-.19-1.78l1.81-.2c-.07-.62-.13-1.2-.2-1.82L267,95c-.13-1.21-.26-2.37-.39-3.55l1.79-.2c.07.6.13,1.17.2,1.79l1.8-.21c.07.62.14,1.19.21,1.8l1.81-.2c.07.62.13,1.2.2,1.77L283.39,95c-.07-.6-.14-1.18-.21-1.8L285,93c-.06-.61-.13-1.18-.2-1.78l1.74-.2C286.54,91,286.56,90.92,286.55,90.88Zm-37.82,4.39c-.07-.61-.13-1.19-.2-1.78l1.75-.2c.07.63.14,1.24.21,1.85-.24,0-.48,0-.72,0S249.1,95.23,248.73,95.27Zm4,3.18c-.07-.61-.13-1.21-.2-1.81l-1.88.21-.19-1.7a3.82,3.82,0,0,1,.56-.14c.41-.06.82-.1,1.26-.15-.07-.61-.13-1.18-.2-1.77l1.81-.2c.06.58.12,1.14.19,1.76l1.85-.21c.07.62.14,1.2.2,1.78l-1.86.23c.07.59.13,1.18.2,1.8Zm3.61-.41c-.07-.6-.14-1.21-.2-1.82L257.9,96c.07.63.14,1.21.21,1.82Zm17.81-3.82c-.07-.59-.13-1.16-.2-1.77l-1.79.2c-.07-.62-.13-1.19-.2-1.79l1.77-.2c.07.58.13,1.15.2,1.75l1.81-.21c-.07-.56-.13-1.14-.2-1.74l1.84-.21.21,1.81-1.83.21c.07.57.13,1.15.2,1.74Zm3.64-.42c-.07-.58-.13-1.15-.19-1.73l1.74-.2c.07.57.13,1.14.2,1.74Z" style="fill:#263238"></path><path d="M254.31,96.46l-1.76.2-.2-1.77,1.76-.2C254.18,95.28,254.25,95.87,254.31,96.46Z" style="fill:#263238"></path><path d="M256.17,96.21l-1.87.24h0c-.06-.59-.13-1.18-.2-1.77l-1.76.2.2,1.77v0l-1.88.21c-.06-.58-.13-1.14-.19-1.71h0a3.53,3.53,0,0,1,.56-.14c.41-.06.82-.1,1.26-.15-.07-.61-.13-1.18-.2-1.77l1.81-.2c.06.58.12,1.14.19,1.76l1.85-.21.2,1.78Z" style="fill:#fff"></path><path d="M277.62,92.06l-1.83.21L276,94l-1.81.21c-.07-.59-.13-1.16-.2-1.77l-1.79.2c-.07-.62-.13-1.19-.2-1.79l1.77-.2c.07.58.13,1.15.2,1.75l1.81-.21c-.07-.56-.13-1.14-.2-1.74l1.84-.21.21,1.82Z" style="fill:#fff"></path><path d="M250.49,95.14c-.24,0-.48,0-.72,0s-.67.07-1,.11l-.2-1.78,1.75-.2c.07.63.14,1.24.21,1.86Z" style="fill:#fff"></path><path d="M256.16,96.22,257.9,96c.07.63.14,1.21.21,1.82l-1.74.19c-.07-.61-.14-1.22-.2-1.83Z" style="fill:#fff"></path><path d="M254.3,96.45c.07.59.13,1.18.2,1.8l-1.74.2-.2-1.81v0l1.76-.2Z" style="fill:#fff"></path><path d="M277.62,92.07l1.75-.2c.07.57.13,1.14.2,1.74l-1.75.19c-.07-.58-.13-1.16-.2-1.74Z" style="fill:#fff"></path></g></g></svg>